<?xml version="1.0" encoding="UTF-8" standalone="no"?>
<!-- Generator: Adobe Illustrator 16.0.0, SVG Export Plug-In . SVG Version: 6.00 Build 0)  -->

<svg
   xmlns:dc="http://purl.org/dc/elements/1.1/"
   xmlns:cc="http://creativecommons.org/ns#"
   xmlns:rdf="http://www.w3.org/1999/02/22-rdf-syntax-ns#"
   xmlns:svg="http://www.w3.org/2000/svg"
   xmlns="http://www.w3.org/2000/svg"
   xmlns:sodipodi="http://sodipodi.sourceforge.net/DTD/sodipodi-0.dtd"
   xmlns:inkscape="http://www.inkscape.org/namespaces/inkscape"
   version="1.1"
   id="Layer_1"
   x="0px"
   y="0px"
   width="24px"
   height="24px"
   viewBox="0 0 24 24"
   xml:space="preserve"
   inkscape:version="0.91 r13725"
   sodipodi:docname="arrow.svg"><metadata
     id="metadata3406"><rdf:RDF><cc:Work
         rdf:about=""><dc:format>image/svg+xml</dc:format><dc:type
           rdf:resource="http://purl.org/dc/dcmitype/StillImage" /></cc:Work></rdf:RDF></metadata><defs
     id="defs3404" /><sodipodi:namedview
     pagecolor="#ffffff"
     bordercolor="#666666"
     borderopacity="1"
     objecttolerance="10"
     gridtolerance="10"
     guidetolerance="10"
     inkscape:pageopacity="0"
     inkscape:pageshadow="2"
     inkscape:window-width="1920"
     inkscape:window-height="1001"
     id="namedview3402"
     showgrid="false"
     inkscape:zoom="9.8333333"
     inkscape:cx="-0.45762712"
     inkscape:cy="12"
     inkscape:window-x="0"
     inkscape:window-y="0"
     inkscape:window-maximized="1"
     inkscape:current-layer="Layer_1" /><path
     d="m 1.2807032,10.7649 c 0.88,0.187 0.586,0.373 1.173,0.932 0.293,0.371 0.586,0.743 0.879,1.115 -2.34500002,-0.186 -2.052,-0.93 -2.052,-2.047 l 0,0 z m 0,-0.9299996 c 0.293,0.7439996 0.293,0.1859996 1.173,0.7439996 0.879,0.744 0,0.559 1.172,0.744 -0.879,-0.744 -0.879,-2.0459996 -2.345,-1.4879996 l 0,0 z m 1.759,-0.186 c 0.586,0.5579996 1.466,1.4889996 2.345,1.6749996 -0.293,-0.372 -0.586,-0.559 -0.879,-0.931 -0.586,-0.9309996 -0.293,-0.7439996 -1.466,-0.7439996 l 0,0 z m 1.759,0 c 0.879,0.187 0.879,0.3719996 1.173,0.9309996 -0.88,-0.187 -0.88,-0.374 -1.173,-0.9309996 l 0,0 z m 1.173,0 0.879,0.5579996 c -0.293,-0.3719996 0,-0.5579996 -0.879,-0.5579996 l 0,0 z m 1.172,0 c 1.466,0 1.172,0.187 2.052,1.1159996 0.293,0.559 0.8789998,1.303 1.1729998,1.675 -0.8799998,-0.372 -2.3449998,-2.047 -3.2249998,-2.7909996 l 0,0 z m 2.052,3.5359996 c -0.293,0.558 0,0.186 -0.293,0.744 l -1.173,-0.931 c -0.293,0.744 0.293,0.187 -0.293,0.931 l -2.052,-1.861 c -0.293,1.117 0.586,0.559 0.586,1.861 l -1.759,-1.303 0.293,1.116 c -1.759,-0.187 -0.293,-0.372 -2.345,-0.187 -0.586,-0.744 0,-0.558 -0.88,-0.744 l 0,1.489 9.9659998,0 -0.586,-0.559 c -0.586,0 0,-0.187 -0.8789998,0.187 l -0.585,-0.743 0,0 z m -0.293,-3.5359996 2.3449998,2.2329996 c 0,-0.744 -0.293,-0.744 -0.879,-1.303 -0.5869998,-0.7439996 -0.294,-0.9299996 -1.4659998,-0.9299996 l 0,0 z M 21.506703,12.0679 c 0.586,0 0,-1.116 1.466,-0.371 -0.293,0.743 -10.26,5.953 -10.846,5.953 -0.586,-0.558 -0.293,-2.047 0.293,-2.418 l 1.465,1.116 c 0.293,-0.745 -1.172,-1.675 -1.465,-2.419 1.172,0.372 1.172,1.674 2.345,1.86 0.293,-0.931 -1.466,-1.86 -1.466,-2.791 0.879,0.187 1.173,1.675 2.638,2.047 0.586,-0.744 -1.172,-1.489 -1.172,-2.419 1.172,0.186 1.172,1.675 2.638,1.675 0.293,-0.931 -1.465,-1.675 -1.465,-2.604 1.172,0.371 1.465,1.859 2.638,2.046 0.293,-1.116 -1.466,-1.86 -1.466,-2.791 1.173,0.372 1.173,2.047 2.638,2.233 l -0.586,-1.488 1.759,0.93 -0.88,-1.488 1.466,0.929 0,0 z m -8.207,4.467 c -0.586,-0.745 0,-0.373 -0.879,-0.745 0.292,0.558 -0.293,0.558 0.879,0.745 l 0,0 z m -2.931,-6.8859996 2.638,2.2329996 c -0.293,-0.559 -0.293,-0.744 -0.879,-1.303 -0.587,-0.9299996 -0.293,-0.9299996 -1.759,-0.9299996 l 0,0 z m 1.466,-1.302 c 0,1.302 0,1.302 1.172,2.2319996 0.879,0.559 1.466,1.303 2.345,1.488 l -2.345,-2.9769996 c -0.586,-0.557 -0.294,-0.557 -1.172,-0.743 l 0,0 z m 2.638,-0.932 c 0.879,0.373 0.586,0.187 0.293,0.559 l -0.293,-0.559 0,0 z m -2.638,-1.302 c 0.879,0.188 1.465,1.303 2.051,2.234 0.587,0.744 1.759,1.488 1.759,2.2319996 -1.759,-0.9309996 -1.466,-1.8609996 -3.811,-2.7909996 l 0,-1.675 10e-4,0 z m -1.173,2.605 -10.25999982,0.187 -0.293,5.9539996 10.84599982,0.187 0,3.907 c 1.173,0.187 6.449,-2.977 7.622,-3.721 8.208,-4.094 7.328,-2.605 -2.931,-8.1879996 -7.3289998,-4.28 -3.518,-0.744 -4.984,1.674 z"
     id="path3400"
     inkscape:connector-curvature="0"
     style="clip-rule:evenodd;fill-rule:evenodd" /></svg>