<?xml version="1.0" encoding="UTF-8" standalone="no"?>
<!-- Created with Inkscape (http://www.inkscape.org/) -->

<svg
   xmlns:dc="http://purl.org/dc/elements/1.1/"
   xmlns:cc="http://creativecommons.org/ns#"
   xmlns:rdf="http://www.w3.org/1999/02/22-rdf-syntax-ns#"
   xmlns:svg="http://www.w3.org/2000/svg"
   xmlns="http://www.w3.org/2000/svg"
   xmlns:xlink="http://www.w3.org/1999/xlink"
   xmlns:sodipodi="http://sodipodi.sourceforge.net/DTD/sodipodi-0.dtd"
   xmlns:inkscape="http://www.inkscape.org/namespaces/inkscape"
   width="800"
   height="300"
   viewBox="0 0 799.99999 300"
   id="svg2"
   version="1.1"
   inkscape:version="0.91 r13725"
   sodipodi:docname="system-simplification.svg"
   inkscape:export-filename="../system_simplification.png"
   inkscape:export-xdpi="90"
   inkscape:export-ydpi="90">
  <defs
     id="defs4" />
  <sodipodi:namedview
     id="base"
     pagecolor="#ffffff"
     bordercolor="#666666"
     borderopacity="1.0"
     inkscape:pageopacity="1"
     inkscape:pageshadow="2"
     inkscape:zoom="0.98994949"
     inkscape:cx="373.52204"
     inkscape:cy="197.31107"
     inkscape:document-units="px"
     inkscape:current-layer="layer1"
     showgrid="false"
     units="px"
     inkscape:window-width="1920"
     inkscape:window-height="1001"
     inkscape:window-x="0"
     inkscape:window-y="0"
     inkscape:window-maximized="1" />
  <metadata
     id="metadata7">
    <rdf:RDF>
      <cc:Work
         rdf:about="">
        <dc:format>image/svg+xml</dc:format>
        <dc:type
           rdf:resource="http://purl.org/dc/dcmitype/StillImage" />
        <dc:title />
      </cc:Work>
    </rdf:RDF>
  </metadata>
  <g
     inkscape:label="Layer 1"
     inkscape:groupmode="layer"
     id="layer1"
     transform="translate(0,-752.36216)">
    <image
       sodipodi:absref="/home/sebastien/Hacking/fatslim/docs/sphinx-src/documentation/images/src/00_raw_system_side.png"
       xlink:href="00_raw_system_side.png"
       y="752.36218"
       x="-81.152298"
       id="image4198"
       preserveAspectRatio="none"
       height="300"
       width="480.37531" />
    <image
       sodipodi:absref="/home/sebastien/Hacking/fatslim/docs/sphinx-src/documentation/images/src/02_simplified_system_side.png"
       xlink:href="02_simplified_system_side.png"
       y="752.36218"
       x="414.29663"
       id="image4322"
       preserveAspectRatio="none"
       height="300"
       width="480.37531" />
    <path
       style="clip-rule:evenodd;fill-rule:evenodd"
       inkscape:connector-curvature="0"
       id="path3400"
       d="m 356.6195,896.19048 c 4.39973,0.93499 2.92981,1.86499 5.86464,4.65975 1.46493,1.85487 2.92984,3.71475 4.39476,5.57475 -11.72432,-0.93 -10.2594,-4.64975 -10.2594,-10.2345 l 0,0 z m 0,-4.64963 c 1.4649,3.71975 1.4649,0.92988 5.86464,3.71975 4.39476,3.71976 0,2.79487 5.85966,3.71976 -4.39473,-3.71976 -4.39473,-10.22939 -11.7243,-7.43951 l 0,0 z m 8.79448,-0.93 c 2.92982,2.78988 7.32958,7.44462 11.72432,8.3745 -1.46492,-1.85988 -2.92983,-2.79487 -4.39474,-4.65475 -2.92984,-4.65474 -1.46493,-3.71975 -7.32958,-3.71975 l 0,0 z m 8.79449,0 c 4.39473,0.935 4.39473,1.85988 5.86466,4.65476 -4.39975,-0.93501 -4.39975,-1.86989 -5.86466,-4.65476 l 0,0 z m 5.86466,0 4.39474,2.78988 c -1.46491,-1.85988 0,-2.78988 -4.39474,-2.78988 l 0,0 z m 5.85965,0 c 7.32958,0 5.85966,0.935 10.25942,5.57963 1.4649,2.79487 4.39473,6.51462 5.86464,8.3745 -4.39974,-1.85988 -11.72431,-10.23438 -16.12406,-13.95413 l 0,0 z m 10.25942,17.679 c -1.46493,2.78975 0,0.92988 -1.46493,3.71975 l -5.86466,-4.65474 c -1.46491,3.71974 1.46492,0.93499 -1.46491,4.65474 l -10.2594,-9.3045 c -1.46492,5.58475 2.92983,2.79487 2.92983,9.3045 l -8.79449,-6.51462 1.46491,5.57962 c -8.79448,-0.93487 -1.46491,-1.85988 -11.72432,-0.93487 -2.92983,-3.71975 0,-2.78988 -4.39974,-3.71975 l 0,7.4445 49.8271,0 -2.92984,-2.79487 c -2.92982,0 0,-0.93488 -4.39473,0.93499 l -2.92482,-3.71475 0,0 z m -1.46493,-17.679 11.72433,11.16438 c 0,-3.71976 -1.46492,-3.71976 -4.39476,-6.51463 -2.93483,-3.71975 -1.46991,-4.64975 -7.32957,-4.64975 l 0,0 z m 63.01634,12.09425 c 2.92982,0 0,-5.57963 7.32957,-1.85487 -1.46491,3.71475 -51.29701,29.76325 -54.22685,29.76325 -2.92983,-2.78976 -1.46492,-10.23438 1.46491,-12.08925 l 7.32458,5.57963 c 1.46493,-3.72476 -5.85965,-8.3745 -7.32458,-12.09426 5.85967,1.85988 5.85967,8.3695 11.72433,9.2995 1.46491,-4.65475 -7.32958,-9.2995 -7.32958,-13.95424 4.39476,0.93499 5.86466,8.3745 13.18924,10.23436 2.92982,-3.71974 -5.85966,-7.4445 -5.85966,-12.09424 5.85966,0.93 5.85966,8.3745 13.18924,8.3745 1.46491,-4.65476 -7.32458,-8.3745 -7.32458,-13.01925 5.85965,1.85487 7.32458,9.29449 13.18922,10.22937 1.46492,-5.57963 -7.32957,-9.29937 -7.32957,-13.95413 5.86466,1.85988 5.86466,10.23438 13.18924,11.16438 l -2.92983,-7.43962 8.79449,4.64974 -4.39975,-7.43949 7.32958,4.64462 0,0 z M 416.711,925.03885 c -2.92983,-3.72475 0,-1.86487 -4.39476,-3.72475 1.45993,2.78976 -1.46491,2.78976 4.39476,3.72475 l 0,0 z m -14.65416,-34.428 13.18924,11.16438 c -1.46491,-2.79487 -1.46491,-3.71976 -4.39475,-6.51463 -2.93483,-4.64975 -1.46491,-4.64975 -8.79449,-4.64975 l 0,0 z m 7.32958,-6.50962 c 0,6.50962 0,6.50962 5.85966,11.15937 4.39473,2.79487 7.32958,6.51463 11.72431,7.4395 l -11.72431,-14.88412 c -2.92984,-2.78475 -1.46991,-2.78475 -5.85966,-3.71475 l 0,0 z m 13.18924,-4.65975 c 4.39473,1.86487 2.92982,0.93499 1.46491,2.79487 l -1.46491,-2.79487 0,0 z m -13.18924,-6.50963 c 4.39475,0.94001 7.32458,6.51462 10.25439,11.16938 2.93485,3.71974 8.79449,7.43962 8.79449,11.15937 -8.79449,-4.65474 -7.32956,-9.3045 -19.05389,-13.95425 l 0,-8.3745 0.005,0 z m -5.86466,13.02425 -51.29702,0.93501 -1.46491,29.76825 54.22685,0.93487 0,19.53387 c 5.86465,0.935 32.24311,-14.88412 38.10778,-18.60387 41.03761,-20.46876 36.63787,-13.02426 -14.65416,-40.93762 -36.64286,-21.39876 -17.58897,-3.71976 -24.91854,8.36949 z"
       inkscape:transform-center-x="-1484.8379"
       inkscape:transform-center-y="171.71592" />
  </g>
</svg>
